# xmcd
#
# Track frame offsets:
# 150
# 13780
# 29530
# 39745
# 52748
# 62455
# 73510
# 87205
# 100850
# 113338
# 123695
# 142483
# 156078
# 172555
# 188513
# 203420
# 218968
# 274593
# 288038
# 302145
#
# Disc length: 4152 seconds
#
# Revision: 0
# Processed by: cddbd v1.5.2PL0 Copyright (c) Steve Scherf et al.
# Submitted via: Audion 3.0.2 (http://www.panic.com/audion/)
#
DISCID=0c103614
DTITLE=Patty Pravo - I Mitici 45 Disc
DYEAR=1900
DGENRE=
TTITLE0=Ragazzo Triste
TTITLE1=Ci Amiamo Troppo
TTITLE2=Qui' E Là
TTITLE3=Se Perdo Te
TTITLE4=Lettera A Gianni
TTITLE5=Sto Con Te
TTITLE6=Se C'e L'amore
TTITLE7=Gli Occhi Dell'Amore
TTITLE8=Sentimento
TTITLE9=Yesterday
TTITLE10=Se mi Vuoi bene
TTITLE11=La Bambola
TTITLE12=Io Per Lui
TTITLE13=Tripoli 69
TTITLE14=Lasciatemi Amare Chi Voglio
TTITLE15=Per Te
TTITLE16=Concerto Per Patty
TTITLE17=Nel Giardino Dell'Amore
TTITLE18=Un Giorno Come Un Altro
TTITLE19=Un'Ora Fa
EXTD=
EXTT0=
EXTT1=
EXTT2=
EXTT3=
EXTT4=
EXTT5=
EXTT6=
EXTT7=
EXTT8=
EXTT9=
EXTT10=
EXTT11=
EXTT12=
EXTT13=
EXTT14=
EXTT15=
EXTT16=
EXTT17=
EXTT18=
EXTT19=
PLAYORDER=
